<svg xmlns="http://www.w3.org/2000/svg" xmlns:xlink="http://www.w3.org/1999/xlink" width="100" zoomAndPan="magnify" viewBox="0 0 75 74.999997" height="100" preserveAspectRatio="xMidYMid meet" version="1.0"><defs><clipPath id="3092aeda7b"><path d="M 13.566406 17 L 61.566406 17 L 61.566406 71.25 L 13.566406 71.25 Z M 13.566406 17 " clip-rule="nonzero"/></clipPath><clipPath id="dba014b250"><path d="M 18 3.75 L 27 3.75 L 27 13 L 18 13 Z M 18 3.75 " clip-rule="nonzero"/></clipPath><clipPath id="124ea2b149"><path d="M 28 3.75 L 37 3.75 L 37 13 L 28 13 Z M 28 3.75 " clip-rule="nonzero"/></clipPath><clipPath id="84f072e2bb"><path d="M 38 3.75 L 49 3.75 L 49 13 L 38 13 Z M 38 3.75 " clip-rule="nonzero"/></clipPath><clipPath id="ee96d39409"><path d="M 49 3.75 L 58 3.75 L 58 13 L 49 13 Z M 49 3.75 " clip-rule="nonzero"/></clipPath></defs><rect x="-7.5" width="90" fill="#ffffff" y="-7.5" height="89.999996" fill-opacity="1"/><rect x="-7.5" width="90" fill="#ffffff" y="-7.5" height="89.999996" fill-opacity="1"/><g clip-path="url(#3092aeda7b)"><path fill="#e44d26" d="M 61.558594 17.015625 L 57.1875 65.820312 L 37.546875 71.246094 L 17.960938 65.828125 L 13.597656 17.015625 Z M 61.558594 17.015625 " fill-opacity="1" fill-rule="nonzero"/></g><path fill="#f16529" d="M 37.578125 67.097656 L 53.449219 62.710938 L 57.183594 21.007812 L 37.578125 21.007812 Z M 37.578125 67.097656 " fill-opacity="1" fill-rule="nonzero"/><path fill="#ebebeb" d="M 29.082031 32.980469 L 37.578125 32.980469 L 37.578125 26.992188 L 22.523438 26.992188 L 22.664062 28.597656 L 24.140625 45.09375 L 37.578125 45.09375 L 37.578125 39.109375 L 29.632812 39.109375 Z M 29.082031 32.980469 " fill-opacity="1" fill-rule="nonzero"/><path fill="#ebebeb" d="M 30.4375 48.089844 L 24.410156 48.089844 L 25.25 57.488281 L 37.550781 60.894531 L 37.578125 60.886719 L 37.578125 54.65625 L 37.550781 54.664062 L 30.863281 52.863281 Z M 30.4375 48.089844 " fill-opacity="1" fill-rule="nonzero"/><g clip-path="url(#dba014b250)"><path fill="#000000" d="M 18.058594 3.75 L 21.109375 3.75 L 21.109375 6.753906 L 23.902344 6.753906 L 23.902344 3.75 L 26.953125 3.75 L 26.953125 12.851562 L 23.902344 12.851562 L 23.902344 9.804688 L 21.109375 9.804688 L 21.109375 12.851562 L 18.058594 12.851562 Z M 18.058594 3.75 " fill-opacity="1" fill-rule="nonzero"/></g><g clip-path="url(#124ea2b149)"><path fill="#000000" d="M 30.964844 6.769531 L 28.28125 6.769531 L 28.28125 3.75 L 36.707031 3.75 L 36.707031 6.769531 L 34.015625 6.769531 L 34.015625 12.851562 L 30.964844 12.851562 Z M 30.964844 6.769531 " fill-opacity="1" fill-rule="nonzero"/></g><g clip-path="url(#84f072e2bb)"><path fill="#000000" d="M 38.042969 3.75 L 41.222656 3.75 L 43.179688 6.949219 L 45.136719 3.75 L 48.316406 3.75 L 48.316406 12.851562 L 45.28125 12.851562 L 45.28125 8.339844 L 43.179688 11.578125 L 43.128906 11.578125 L 41.027344 8.339844 L 41.027344 12.851562 L 38.042969 12.851562 Z M 38.042969 3.75 " fill-opacity="1" fill-rule="nonzero"/></g><g clip-path="url(#ee96d39409)"><path fill="#000000" d="M 49.835938 3.75 L 52.886719 3.75 L 52.886719 9.84375 L 57.179688 9.84375 L 57.179688 12.851562 L 49.835938 12.851562 Z M 49.835938 3.75 " fill-opacity="1" fill-rule="nonzero"/></g><path fill="#ffffff" d="M 37.558594 45.09375 L 44.949219 45.09375 L 44.253906 52.859375 L 37.558594 54.664062 L 37.558594 60.890625 L 49.863281 57.488281 L 49.957031 56.476562 L 51.367188 40.714844 L 51.515625 39.109375 L 37.558594 39.109375 Z M 37.558594 45.09375 " fill-opacity="1" fill-rule="nonzero"/><path fill="#ffffff" d="M 37.558594 32.964844 L 37.558594 32.980469 L 52.058594 32.980469 L 52.179688 31.632812 L 52.453125 28.597656 L 52.597656 26.992188 L 37.558594 26.992188 Z M 37.558594 32.964844 " fill-opacity="1" fill-rule="nonzero"/></svg>