<svg xmlns="http://www.w3.org/2000/svg" xmlns:xlink="http://www.w3.org/1999/xlink" width="100" zoomAndPan="magnify" viewBox="0 0 75 74.999997" height="100" preserveAspectRatio="xMidYMid meet" version="1.0"><defs><clipPath id="a74d690b38"><path d="M 5.773438 5.773438 L 69.523438 5.773438 L 69.523438 69.523438 L 5.773438 69.523438 Z M 5.773438 5.773438 " clip-rule="nonzero"/></clipPath></defs><rect x="-7.5" width="90" fill="#ffffff" y="-7.5" height="89.999996" fill-opacity="1"/><rect x="-7.5" width="90" fill="#ffffff" y="-7.5" height="89.999996" fill-opacity="1"/><g clip-path="url(#a74d690b38)"><path fill="#e52d27" d="M 69.523438 59.835938 C 69.523438 65.179688 65.179688 69.523438 59.835938 69.523438 L 15.464844 69.523438 C 10.121094 69.523438 5.773438 65.179688 5.773438 59.835938 L 5.773438 15.464844 C 5.773438 10.121094 10.121094 5.773438 15.464844 5.773438 L 59.835938 5.773438 C 65.179688 5.773438 69.523438 10.121094 69.523438 15.464844 Z M 69.523438 59.835938 " fill-opacity="1" fill-rule="nonzero"/></g><path fill="#ffffff" d="M 60.246094 38.15625 C 60.246094 41.679688 60.246094 45.414062 59.460938 48.828125 C 58.90625 51.234375 56.945312 52.996094 54.570312 53.261719 C 48.972656 53.882812 43.296875 53.894531 37.65625 53.882812 C 32.003906 53.882812 26.347656 53.882812 20.738281 53.261719 C 18.378906 52.996094 16.40625 51.234375 15.851562 48.828125 C 15.0625 45.414062 15.0625 41.679688 15.0625 38.15625 C 15.0625 34.628906 15.074219 30.894531 15.851562 27.480469 C 16.40625 25.074219 18.367188 23.3125 20.738281 23.046875 C 26.347656 22.414062 32.011719 22.414062 37.65625 22.414062 C 43.296875 22.414062 48.960938 22.414062 54.570312 23.046875 C 56.933594 23.3125 58.90625 25.074219 59.460938 27.480469 C 60.246094 30.894531 60.246094 34.628906 60.246094 38.15625 Z M 60.246094 38.15625 " fill-opacity="1" fill-rule="nonzero"/><path fill="#e52d27" d="M 32.898438 29.75 L 32.898438 46.632812 L 46.011719 38.1875 Z M 32.898438 29.75 " fill-opacity="1" fill-rule="nonzero"/></svg>