<svg xmlns="http://www.w3.org/2000/svg" xmlns:xlink="http://www.w3.org/1999/xlink" width="100" zoomAndPan="magnify" viewBox="0 0 75 74.999997" height="100" preserveAspectRatio="xMidYMid meet" version="1.0"><defs><clipPath id="150b4123e1"><path d="M 7.5 7.5 L 67.5 7.5 L 67.5 67.5 L 7.5 67.5 Z M 7.5 7.5 " clip-rule="nonzero"/></clipPath><clipPath id="b7dd2851b5"><path d="M 31 16 L 59 16 L 59 67.5 L 31 67.5 Z M 31 16 " clip-rule="nonzero"/></clipPath></defs><rect x="-7.5" width="90" fill="#ffffff" y="-7.5" height="89.999996" fill-opacity="1"/><rect x="-7.5" width="90" fill="#ffffff" y="-7.5" height="89.999996" fill-opacity="1"/><g clip-path="url(#150b4123e1)"><path fill="#3d5a98" d="M 64.183594 67.496094 C 66.011719 67.496094 67.496094 66.011719 67.496094 64.183594 L 67.496094 10.8125 C 67.496094 8.980469 66.011719 7.5 64.183594 7.5 L 10.8125 7.5 C 8.980469 7.5 7.5 8.980469 7.5 10.8125 L 7.5 64.183594 C 7.5 66.011719 8.980469 67.496094 10.8125 67.496094 Z M 64.183594 67.496094 " fill-opacity="1" fill-rule="nonzero"/></g><g clip-path="url(#b7dd2851b5)"><path fill="#ffffff" d="M 48.894531 67.496094 L 48.894531 44.261719 L 56.695312 44.261719 L 57.863281 35.207031 L 48.894531 35.207031 L 48.894531 29.425781 C 48.894531 26.804688 49.625 25.019531 53.382812 25.019531 L 58.175781 25.015625 L 58.175781 16.917969 C 57.347656 16.808594 54.503906 16.5625 51.191406 16.5625 C 44.277344 16.5625 39.546875 20.78125 39.546875 28.53125 L 39.546875 35.207031 L 31.726562 35.207031 L 31.726562 44.261719 L 39.546875 44.261719 L 39.546875 67.496094 Z M 48.894531 67.496094 " fill-opacity="1" fill-rule="nonzero"/></g></svg>