<svg xmlns="http://www.w3.org/2000/svg" xmlns:xlink="http://www.w3.org/1999/xlink" width="100" zoomAndPan="magnify" viewBox="0 0 75 74.999997" height="100" preserveAspectRatio="xMidYMid meet" version="1.0"><defs><clipPath id="f47073918e"><path d="M 4.800781 4.5 L 70.800781 4.5 L 70.800781 70.5 L 4.800781 70.5 Z M 4.800781 4.5 " clip-rule="nonzero"/></clipPath></defs><rect x="-7.5" width="90" fill="#ffffff" y="-7.5" height="89.999996" fill-opacity="1"/><rect x="-7.5" width="90" fill="#ffffff" y="-7.5" height="89.999996" fill-opacity="1"/><g clip-path="url(#f47073918e)"><path fill="#2197bd" d="M 70.800781 60.464844 C 70.800781 66.003906 66.308594 70.492188 60.769531 70.492188 L 14.832031 70.492188 C 9.292969 70.492188 4.800781 66.003906 4.800781 60.464844 L 4.800781 14.523438 C 4.800781 8.984375 9.292969 4.496094 14.832031 4.496094 L 60.769531 4.496094 C 66.308594 4.496094 70.800781 8.984375 70.800781 14.523438 Z M 70.800781 60.464844 " fill-opacity="1" fill-rule="nonzero"/></g><path fill="#ffffff" d="M 30.898438 28.042969 C 30.898438 28.367188 30.867188 28.6875 30.804688 29.003906 C 30.742188 29.320312 30.648438 29.628906 30.523438 29.929688 C 30.398438 30.226562 30.25 30.511719 30.070312 30.78125 C 29.886719 31.050781 29.683594 31.300781 29.457031 31.527344 C 29.226562 31.757812 28.976562 31.960938 28.707031 32.140625 C 28.4375 32.320312 28.15625 32.472656 27.855469 32.597656 C 27.558594 32.722656 27.25 32.8125 26.929688 32.878906 C 26.613281 32.941406 26.292969 32.972656 25.96875 32.972656 C 25.644531 32.972656 25.324219 32.941406 25.007812 32.878906 C 24.691406 32.8125 24.382812 32.722656 24.082031 32.597656 C 23.785156 32.472656 23.5 32.320312 23.230469 32.140625 C 22.960938 31.960938 22.710938 31.757812 22.484375 31.527344 C 22.253906 31.300781 22.050781 31.050781 21.871094 30.78125 C 21.691406 30.511719 21.539062 30.226562 21.414062 29.929688 C 21.289062 29.628906 21.195312 29.320312 21.132812 29.003906 C 21.070312 28.6875 21.039062 28.367188 21.039062 28.042969 C 21.039062 27.71875 21.070312 27.398438 21.132812 27.082031 C 21.195312 26.761719 21.289062 26.453125 21.414062 26.15625 C 21.539062 25.855469 21.691406 25.570312 21.871094 25.304688 C 22.050781 25.035156 22.253906 24.785156 22.484375 24.554688 C 22.710938 24.328125 22.960938 24.121094 23.230469 23.941406 C 23.5 23.761719 23.785156 23.609375 24.082031 23.488281 C 24.382812 23.363281 24.691406 23.269531 25.007812 23.207031 C 25.324219 23.144531 25.644531 23.113281 25.96875 23.113281 C 26.292969 23.113281 26.613281 23.144531 26.929688 23.207031 C 27.25 23.269531 27.558594 23.363281 27.855469 23.488281 C 28.15625 23.609375 28.4375 23.761719 28.707031 23.941406 C 28.976562 24.121094 29.226562 24.328125 29.457031 24.554688 C 29.683594 24.785156 29.886719 25.035156 30.070312 25.304688 C 30.25 25.570312 30.398438 25.855469 30.523438 26.15625 C 30.648438 26.453125 30.742188 26.761719 30.804688 27.082031 C 30.867188 27.398438 30.898438 27.71875 30.898438 28.042969 Z M 30.898438 28.042969 " fill-opacity="1" fill-rule="nonzero"/><path fill="#ffffff" d="M 21.71875 36.605469 L 30.1875 36.605469 L 30.1875 63.855469 L 21.71875 63.855469 Z M 21.71875 36.605469 " fill-opacity="1" fill-rule="nonzero"/><path fill="#ffffff" d="M 35.515625 36.605469 L 43.578125 36.605469 L 43.578125 63.855469 L 35.515625 63.855469 Z M 35.515625 36.605469 " fill-opacity="1" fill-rule="nonzero"/><path fill="#ffffff" d="M 35.863281 51.113281 L 43.925781 51.113281 L 43.925781 63.855469 L 35.863281 63.855469 Z M 35.863281 51.113281 " fill-opacity="1" fill-rule="nonzero"/><path fill="#ffffff" d="M 43.925781 51.113281 C 43.925781 51.113281 43.800781 47.582031 44.730469 45.742188 C 44.730469 45.742188 45.664062 43.480469 48.59375 43.464844 C 48.59375 43.464844 52.03125 42.867188 53.015625 46.277344 C 53.015625 46.277344 53.386719 48.167969 53.386719 48.964844 C 53.386719 49.765625 53.414062 63.855469 53.414062 63.855469 L 61.859375 63.855469 L 61.859375 48.246094 C 61.859375 48.246094 62.472656 39.429688 57.179688 37.015625 C 57.179688 37.015625 48.476562 33.109375 43.753906 40.28125 C 43.753906 40.28125 42.726562 40.992188 42.582031 39.003906 C 42.441406 37.015625 41.234375 42.058594 41.199219 42.164062 C 41.164062 42.273438 42.582031 52.214844 42.582031 52.214844 Z M 43.925781 51.113281 " fill-opacity="1" fill-rule="nonzero"/></svg>