<svg xmlns="http://www.w3.org/2000/svg" xmlns:xlink="http://www.w3.org/1999/xlink" width="100" zoomAndPan="magnify" viewBox="0 0 75 74.999997" height="100" preserveAspectRatio="xMidYMid meet" version="1.0"><defs><clipPath id="3994afef0f"><path d="M 26.492188 22.5 L 48.242188 22.5 L 48.242188 52.5 L 26.492188 52.5 Z M 26.492188 22.5 " clip-rule="nonzero"/></clipPath><clipPath id="b0c089d125"><path d="M 40 22.5 L 48.242188 22.5 L 48.242188 31 L 40 31 Z M 40 22.5 " clip-rule="nonzero"/></clipPath></defs><rect x="-7.5" width="90" fill="#ffffff" y="-7.5" height="89.999996" fill-opacity="1"/><rect x="-7.5" width="90" fill="#ffffff" y="-7.5" height="89.999996" fill-opacity="1"/><g clip-path="url(#3994afef0f)"><path fill="#c64220" d="M 40.632812 22.5 L 28.496094 22.5 C 27.421875 22.5 26.5 23.433594 26.5 24.519531 L 26.5 50.480469 C 26.5 51.566406 27.421875 52.5 28.496094 52.5 L 46.085938 52.5 C 47.160156 52.5 48.082031 51.566406 48.082031 50.480469 L 48.082031 30.039062 Z M 40.632812 22.5 " fill-opacity="1" fill-rule="nonzero"/></g><g clip-path="url(#b0c089d125)"><path fill="#221f1f" d="M 40.785156 22.5 L 40.785156 30.039062 L 48.238281 30.039062 " fill-opacity="0.35" fill-rule="nonzero"/></g><path fill="#ffffff" d="M 43.015625 36.335938 L 43.015625 45.972656 C 43.015625 46.050781 43.015625 46.050781 43.015625 46.125 C 42.9375 46.59375 42.554688 46.980469 42.09375 46.980469 L 32.492188 46.980469 C 32.335938 46.980469 32.105469 46.902344 32.03125 46.828125 C 31.953125 46.828125 31.953125 46.75 31.875 46.75 C 31.644531 46.59375 31.570312 46.28125 31.570312 46.050781 L 31.570312 36.335938 C 31.570312 35.789062 32.03125 35.402344 32.492188 35.402344 L 42.015625 35.402344 C 42.476562 35.402344 42.9375 35.789062 42.9375 36.257812 C 43.015625 36.257812 43.015625 36.257812 43.015625 36.335938 Z M 43.015625 36.335938 " fill-opacity="1" fill-rule="nonzero"/><path fill="#c64220" d="M 39.632812 39.132812 C 39.480469 38.820312 39.25 38.589844 38.941406 38.433594 C 38.636719 38.277344 38.328125 38.199219 37.945312 38.199219 L 35.027344 38.199219 L 35.027344 44.574219 L 36.253906 44.574219 L 36.253906 42.320312 L 37.945312 42.320312 C 38.328125 42.320312 38.636719 42.242188 38.941406 42.085938 C 39.25 41.929688 39.480469 41.695312 39.632812 41.386719 C 39.789062 41.074219 39.863281 40.6875 39.863281 40.296875 C 39.863281 39.753906 39.789062 39.441406 39.632812 39.132812 Z M 38.484375 40.6875 C 38.40625 40.84375 38.328125 40.917969 38.175781 40.996094 C 38.023438 41.152344 37.867188 41.152344 37.714844 41.152344 L 36.253906 41.152344 L 36.253906 39.132812 L 37.714844 39.132812 C 37.867188 39.132812 38.023438 39.210938 38.175781 39.289062 C 38.328125 39.367188 38.40625 39.519531 38.484375 39.597656 C 38.558594 39.753906 38.558594 39.910156 38.558594 40.140625 C 38.558594 40.375 38.484375 40.53125 38.484375 40.6875 Z M 38.484375 40.6875 " fill-opacity="1" fill-rule="nonzero"/></svg>