<svg xmlns="http://www.w3.org/2000/svg" xmlns:xlink="http://www.w3.org/1999/xlink" width="100" zoomAndPan="magnify" viewBox="0 0 75 74.999997" height="100" preserveAspectRatio="xMidYMid meet" version="1.0"><defs><clipPath id="9c6968e00a"><path d="M 13 12.394531 L 62.644531 12.394531 L 62.644531 62.644531 L 13 62.644531 Z M 13 12.394531 " clip-rule="nonzero"/></clipPath></defs><g clip-path="url(#9c6968e00a)"><path fill="#000000" d="M 55.503906 19.5 C 50.972656 14.898438 44.933594 12.429688 38.546875 12.429688 C 32.09375 12.429688 26.054688 14.96875 21.59375 19.5 C 14.042969 27.050781 12.394531 38.71875 17.542969 48.125 L 13.082031 61.167969 C 13.011719 61.441406 13.082031 61.71875 13.21875 61.855469 C 13.355469 61.992188 13.492188 62.058594 13.699219 62.058594 C 13.765625 62.058594 13.835938 62.058594 13.902344 61.992188 L 26.945312 57.53125 C 36.28125 62.609375 48.023438 60.960938 55.574219 53.480469 C 60.105469 48.949219 62.644531 42.90625 62.644531 36.523438 C 62.574219 30.070312 60.105469 24.03125 55.503906 19.5 Z M 54.542969 52.519531 C 47.402344 59.65625 36.144531 61.167969 27.289062 56.15625 C 27.152344 56.089844 26.945312 56.019531 26.742188 56.089844 L 14.796875 60.207031 L 18.914062 48.261719 C 18.984375 48.054688 18.984375 47.851562 18.847656 47.714844 C 13.835938 38.855469 15.34375 27.597656 22.484375 20.460938 C 26.808594 16.136719 32.4375 13.800781 38.546875 13.800781 C 44.589844 13.800781 50.289062 16.203125 54.542969 20.460938 C 58.867188 24.714844 61.203125 30.414062 61.203125 36.453125 C 61.203125 42.496094 58.867188 48.195312 54.542969 52.519531 Z M 54.542969 52.519531 " fill-opacity="1" fill-rule="nonzero"/></g><path fill="#000000" d="M 51.042969 40.574219 C 49.53125 40.09375 48.089844 39.40625 46.71875 38.71875 C 45.894531 38.238281 44.796875 38.375 44.039062 39.132812 L 42.460938 40.640625 C 41.773438 41.328125 40.539062 41.328125 39.785156 40.640625 L 34.429688 35.21875 C 34.019531 34.808594 33.8125 34.328125 33.8125 33.847656 C 33.8125 33.367188 34.019531 32.953125 34.429688 32.542969 L 35.941406 30.964844 C 36.625 30.277344 36.761719 29.179688 36.28125 28.355469 C 35.527344 26.980469 34.910156 25.539062 34.429688 24.03125 C 34.085938 22.929688 32.851562 22.246094 31.753906 22.589844 L 26.261719 24.03125 C 25.644531 24.167969 25.164062 24.578125 24.886719 25.128906 C 24.613281 25.675781 24.542969 26.292969 24.75 26.914062 C 28.320312 38.035156 37.105469 46.820312 48.226562 50.390625 C 48.433594 50.457031 48.707031 50.527344 48.914062 50.527344 C 49.257812 50.527344 49.667969 50.457031 50.011719 50.253906 C 50.5625 49.976562 50.972656 49.429688 51.109375 48.878906 L 52.550781 43.386719 C 52.757812 42.082031 52.140625 40.917969 51.042969 40.574219 Z M 51.179688 42.90625 L 49.738281 48.398438 C 49.667969 48.605469 49.53125 48.8125 49.324219 48.949219 C 49.121094 49.085938 48.84375 49.085938 48.640625 49.015625 C 37.929688 45.585938 29.488281 37.140625 26.054688 26.433594 C 25.984375 26.226562 25.984375 25.953125 26.125 25.746094 C 26.261719 25.539062 26.398438 25.402344 26.671875 25.332031 L 32.164062 23.890625 C 32.234375 23.890625 32.300781 23.890625 32.371094 23.890625 C 32.714844 23.890625 33.058594 24.097656 33.195312 24.511719 C 33.675781 26.019531 34.359375 27.597656 35.117188 28.972656 C 35.320312 29.316406 35.253906 29.726562 34.980469 30 L 33.46875 31.582031 C 32.851562 32.199219 32.507812 32.953125 32.4375 33.847656 C 32.4375 34.738281 32.78125 35.5625 33.398438 36.25 L 38.753906 41.671875 C 40.058594 42.90625 42.117188 42.90625 43.355469 41.671875 L 44.933594 40.09375 C 45.207031 39.820312 45.621094 39.75 45.960938 39.957031 C 47.402344 40.710938 48.914062 41.398438 50.492188 41.945312 C 51.042969 42.015625 51.25 42.425781 51.179688 42.90625 Z M 51.179688 42.90625 " fill-opacity="1" fill-rule="nonzero"/></svg>